Simulation
nRows=32
nColumns=15
endheader
time  TH_x TH_y TH_z SC_y  SC_z  SC_x  AC_y  AC_z  AC_x  GH_y  GH_z  GH_yy  EL_x  PS_y
0.0  0.000000  0.000000  0.000000  -18.013375630100043  -1.15142849209097  1.0923153096708984  59.77248681532621  4.608179345449089  -8.702582788293967  3.9408891747124697  18.0315767626447  27.823786153632902  29.814936181630962  120.000000
0.03  0.000000  0.000000  0.000000  -17.965339732882573  -0.6206436057193208  1.467774557591223  59.98341478657611  4.93978853387041  -8.42235373158812  5.517072459618427  18.554140612910174  24.8739525999434  30.02529187972281  120.000000
0.06  0.000000  0.000000  0.000000  -18.026456807346587  -0.19561274310296975  1.772872877029856  60.250814409829395  5.195967851572664  -8.130340714077553  7.1014915651165  19.0663505934605  21.90170000651905  30.267437566131832  120.000000
0.09  0.000000  0.000000  0.000000  -18.182649794904997  0.1178781762143307  2.0302962186440014  60.61330892783871  5.43245508350693  -7.831240657142268  8.696133107569512  19.63386797217505  18.894996293248305  30.542097449720604  120.000000
0.12  0.000000  0.000000  0.000000  -18.434809379110646  0.3360781566311199  2.2557106871172845  61.0819443547571  5.67530523099155  -7.525724991498812  10.284041886122708  20.298989280111012  15.831295609010075  30.8694402186613  120.000000
0.15  0.000000  0.000000  0.000000  -18.750631384704107  0.4869885793109639  2.4612967471260285  61.637952919569535  5.942150562247067  -7.213841812237233  11.852135316764961  21.085472853659095  12.712513443758718  31.253286346883183  120.000000
0.18  0.000000  0.000000  0.000000  -19.107895314096556  0.5952607602561896  2.6537245858048495  62.2588301659359  6.2423082842578115  -6.893287151676814  13.385933320576003  22.00854516143253  9.553268977779735  31.697615485847507  120.000000
0.21  0.000000  0.000000  0.000000  -19.480202619777227  0.6836619802705426  2.8326845283086124  62.91994380202348  6.576394149612254  -6.559721017729  14.866610659972087  23.070740293508017  6.374117122404197  32.19852320472155  120.000000
0.24  0.000000  0.000000  0.000000  -19.843899687791353  0.7690546812046264  2.9956692847257305  63.59621620828768  6.942030009750969  -6.2103877930370395  16.276797841089426  24.26360470051023  3.2053451266935316  32.746075318523786  120.000000
0.27  0.000000  0.000000  0.000000  -20.182814204840753  0.8628703239556763  3.140053453830333  64.26802272167853  7.337696801570532  -5.8453024951077905  17.599198912914215  25.57031551420538  0.07831707615709471  33.33020101956366  120.000000
0.3  0.000000  0.000000  0.000000  -20.488592876972703  0.9719523337363634  3.265596286573986  64.92033948909048  7.765199719368965  -5.466680762832601  18.819842202788674  26.968790651384637  -2.976299122388444  33.93817812533071  120.000000
0.32999999999999996  0.000000  0.000000  0.000000  -20.762164493909207  1.0990221861740452  3.374543410178169  65.54479347911762  8.230232647779195  -5.080134189860888  19.927681220781803  28.43581512721306  -5.936954075873094  34.55730666201331  120.000000
0.36  0.000000  0.000000  0.000000  -21.013964144083925  1.2453332132935666  3.471074475972078  66.13754784950397  8.739607950726509  -4.690689660186122  20.916891418786744  29.94861357641582  -8.794267679814556  35.175994512399186  120.000000
0.39  0.000000  0.000000  0.000000  -21.25989189586018  1.4090315782357037  3.559298790372641  66.6990605418922  9.298389090419235  -4.303737558532036  21.787322194685647  31.48589423140805  -11.552473316389959  35.783374554318584  120.000000
0.42  0.000000  0.000000  0.000000  -21.51840388965848  1.5848012159212033  3.64280273883509  67.23252214159848  9.908727194549483  -3.925052587242166  22.54473794935013  33.02649336699177  -14.224242653113183  36.36943958840713  120.000000
0.44999999999999996  0.000000  0.000000  0.000000  -21.808090303970307  1.7670296757720811  3.7242338481429886  67.74126707492677  10.569103789397335  -3.559629103512089  23.19944070964703  34.550611265297896  -16.823145559625747  36.926065316584186  120.000000
0.48  0.000000  0.000000  0.000000  -22.142768495992488  1.9511273689638853  3.805929281986903  68.2273663108872  11.274936978381394  -3.210740173659294  23.76299450195985  36.040045278829595  -19.35669947408809  37.44664450547895  120.000000
0.51  0.000000  0.000000  0.000000  -22.526855941120477  2.1332885025557733  3.8895350117536838  68.6912960131508  12.018456293761876  -2.8800101996025123  24.24456400983999  37.48070193325463  -21.82129701734164  37.92495599324209  120.000000
0.54  0.000000  0.000000  0.000000  -22.954085813355434  2.3108476955310615  3.9754281779684737  69.13298158358494  12.78846970114611  -2.566557991071023  24.648786014922248  38.86369557724134  -24.201469214929787  38.35525388219777  120.000000
0.57  0.000000  0.000000  0.000000  -23.409060137021026  2.482570858036396  4.062136041995599  69.55178397874327  13.570388652977705  -2.266451140177363  24.97562906868239  40.18553372058633  -26.471881648042054  38.73228226099014  120.000000
0.6  0.000000  0.000000  0.000000  -23.872026682224476  2.648218436458731  4.146136319016468  69.94796403526816  14.347798610498199  -1.9739336950151112  25.222344886311262  41.44733435547973  -28.603135231539593  39.05151925315374  120.000000
0.63  0.000000  0.000000  0.000000  -24.32422661881492  2.8082359125591423  4.222673399608749  70.32244152469373  15.104608977876639  -1.6827575439149927  25.385902612492377  42.65330465358801  -30.567215462262176  39.309913162457576  120.000000
0.6599999999999999  0.000000  0.000000  0.000000  -24.751744852465137  2.963577492385634  4.2870087288021645  70.67689925774437  15.827175586111757  -1.3883067614755653  25.46567814856057  43.80938344284315  -32.343513271543166  39.506213695421344  120.000000
0.69  0.000000  0.000000  0.000000  -25.14712441194169  3.115365366185382  4.336330804339552  71.01265150042595  16.505428966441603  -1.0883517335562576  25.465354485961196  44.92126553658161  -33.92125870853659  39.641117058871814  120.000000
0.72  0.000000  0.000000  0.000000  -25.508350370675032  3.26438388035213  4.370468256043629  71.3307739070773  17.132954300300398  -0.7840015868037582  25.393432831720283  45.9937096400706  -35.30064019137148  39.7168793088868  120.000000
0.75  0.000000  0.000000  0.000000  -25.837046132388526  3.4108619101656057  4.391824650193721  71.63174086372916  17.7066003674795  -0.4783413691896292  25.26227163741819  47.02942536339252  -36.49065299072509  39.737403364548996  120.000000
0.78  0.000000  0.000000  0.000000  -26.13650173802868  3.554455621681739  4.404439962060783  71.91593200659698  18.225711164466922  -0.17602358616649746  25.086522522818957  48.02949421065296  -37.506815666607025  39.70807960721148  120.000000
0.8099999999999999  0.000000  0.000000  0.000000  -26.41026846694319  3.6942729016223104  4.413566211575042  72.18344553896547  18.6913974877737  0.11811507333608473  24.88116165950856  48.992808227605686  -38.3672680850643  39.63574970494899  120.000000
0.84  0.000000  0.000000  0.000000  -26.66135723392763  3.8289616984573143  4.424602074314204  72.43467827153661  19.105856817680852  0.39917310952923757  24.659719432834432  49.91657701534886  -39.0910199099723  39.52868312380424  120.000000
0.87  0.000000  0.000000  0.000000  -26.89234691740687  3.9568788298501367  4.442644201241791  72.67030847655381  19.471737943460493  0.6631620529007646  24.433071947824917  50.79628709360879  -39.6958243940699  39.39640776878279  120.000000
0.8999999999999999  0.000000  0.000000  0.000000  -27.105396563713228  4.0763566624000385  4.471992281628959  72.89138334474612  19.791765330734588  0.9066317228268406  24.209279191916924  51.62654427123087  -40.197823498991916  39.24895049951376  120.000000
0.9299999999999999  0.000000  0.000000  0.000000  -27.30248269484212  4.185866304042232  4.516021579449625  73.09903882503441  20.068551112482634  1.1271520217477042  23.993655568892503  52.40130617180278  -40.61088579124368  39.09605638727822  120.000000
